# xmcd CD database file
#
# Track frame offsets:
#	150
#	50372
#	102750
#	124657
#	137737
#	203637
#	247725
#
# Disc length: 3626 seconds
#
# Revision: 0
# Processed by: cddbd v1.5.1PL0 Copyright (c) Steve Scherf et al.
# Submitted via: CDex 1.51
#
DISCID=540e2807
DTITLE=Various Artist - Take Me To Jazz Club
DYEAR=2005
DGENRE=Jazz
TTITLE0=Walkin'/Miles Davis At "Plugged Nickel"(Chicago)
TTITLE1=On Green Dolphin Street/Miles Davis at"Plugged Nickel"(Chicago)
TTITLE2=St. Thomas/Branford Marsalis At "Concert By The Sea"(California)
TTITLE3=Cherokee/Wynton Marsalis At "Blues Ally"(Washington D.C.)
TTITLE4=Au Privave/Wynton Marsalis At "Blues Ally"(Washington D.C.)
TTITLE5=Autumn Leaves/Wynton Marsalis At "Blues Ally"(Washington D.C.)
TTITLE6=Oleo/Miles Davis At "Black Hawk"(San Francisco)
EXTD=YEAR: 2005
EXTT0=
EXTT1=
EXTT2=
EXTT3=
EXTT4=
EXTT5=
EXTT6=
PLAYORDER=
